<?xml version="1.0" encoding="UTF-8" standalone="no"?>
<svg
   width="451.83701"
   height="152.40199"
   viewBox="0 0 451.83701 152.40199"
   fill="none"
   version="1.1"
   id="svg47"
   sodipodi:docname="Adjusted logo light BG.svg"
   inkscape:version="1.2 (dc2aedaf03, 2022-05-15)"
   xmlns:inkscape="http://www.inkscape.org/namespaces/inkscape"
   xmlns:sodipodi="http://sodipodi.sourceforge.net/DTD/sodipodi-0.dtd"
   xmlns="http://www.w3.org/2000/svg"
   xmlns:svg="http://www.w3.org/2000/svg">
  <sodipodi:namedview
     id="namedview49"
     pagecolor="#ffffff"
     bordercolor="#666666"
     borderopacity="1.0"
     inkscape:pageshadow="2"
     inkscape:pageopacity="0.0"
     inkscape:pagecheckerboard="true"
     showgrid="false"
     inkscape:zoom="2.3596543"
     inkscape:cx="-176.7208"
     inkscape:cy="60.813994"
     inkscape:window-width="2560"
     inkscape:window-height="1048"
     inkscape:window-x="0"
     inkscape:window-y="32"
     inkscape:window-maximized="1"
     inkscape:current-layer="svg47"
     fit-margin-top="0"
     fit-margin-left="0"
     fit-margin-right="0"
     fit-margin-bottom="0"
     inkscape:showpageshadow="2"
     inkscape:deskcolor="#d1d1d1" />
  <path
     d="m 212.686,116 c 0,5.523 -4.477,10.001 -10,10.001 h -6.836 v -7.808 h -0.244 c -0.732,1.057 -1.708,2.155 -2.928,3.293 -1.139,1.058 -2.521,2.034 -4.148,2.929 -1.545,0.894 -3.294,1.626 -5.246,2.196 -1.871,0.569 -3.823,0.853 -5.856,0.853 -4.392,0 -8.377,-0.732 -11.956,-2.196 -3.579,-1.545 -6.669,-3.66 -9.272,-6.344 -2.521,-2.765 -4.473,-6.018 -5.856,-9.759 -1.383,-3.742 -2.074,-7.849 -2.074,-12.322 0,-4.148 0.61,-8.093 1.83,-11.835 1.301,-3.822 3.091,-7.198 5.368,-10.126 2.359,-2.9275 5.205,-5.2455 8.54,-6.9535 3.335,-1.7893 7.117,-2.684 11.346,-2.684 3.823,0 7.361,0.61 10.614,1.83 3.335,1.1387 6.059,3.1313 8.174,5.9785 h 0.244 V 43.7685 c 0,-5.5229 4.477,-10 10,-10 h 8.3 z M 195.85,96.354 c 0,-4.473 -1.301,-8.092 -3.904,-10.858 -2.521,-2.765 -6.1,-4.148 -10.736,-4.148 -4.636,0 -8.255,1.383 -10.858,4.148 -2.521,2.766 -3.782,6.385 -3.782,10.858 0,4.474 1.261,8.093 3.782,10.858 2.603,2.766 6.222,4.149 10.858,4.149 4.636,0 8.215,-1.383 10.736,-4.149 2.603,-2.765 3.904,-6.384 3.904,-10.858 z"
     fill="#dc244c"
     id="path10" />
  <path
     d="m 224.532,76.708 c 0,-5.5223 4.477,-9.9995 10,-9.9995 h 8.3 v 9.5155 h 0.244 c 1.952,-3.6595 4.27,-6.3842 6.954,-8.1735 2.684,-1.8707 6.059,-2.806 10.126,-2.806 1.057,0 2.114,0.0407 3.172,0.122 1.057,0.0813 2.033,0.244 2.928,0.488 V 82.569 c -1.302,-0.407 -2.603,-0.692 -3.904,-0.855 -1.22,-0.244 -2.522,-0.366 -3.904,-0.366 -3.498,0 -6.263,0.488 -8.296,1.464 -2.034,0.976 -3.62,2.359 -4.758,4.148 -1.058,1.708 -1.749,3.782 -2.074,6.222 -0.326,2.441 -0.488,5.124 -0.488,8.052 V 116 c 0,5.523 -4.477,10.001 -10,10.001 h -8.3 z"
     fill="#dc244c"
     id="path12" />
  <path
     d="m 310.643,118.559 h -0.244 c -2.033,3.172 -4.758,5.449 -8.174,6.832 -3.334,1.382 -6.872,2.073 -10.614,2.073 -2.765,0 -5.449,-0.406 -8.052,-1.219 -2.521,-0.732 -4.758,-1.871 -6.71,-3.416 -1.952,-1.546 -3.497,-3.457 -4.636,-5.735 -1.138,-2.277 -1.708,-4.92 -1.708,-7.929 0,-3.416 0.61,-6.304 1.83,-8.662 1.302,-2.359 3.01,-4.311 5.124,-5.856 2.196,-1.546 4.677,-2.725 7.442,-3.538 2.766,-0.895 5.612,-1.546 8.54,-1.953 3.01,-0.406 5.978,-0.65 8.906,-0.732 3.01,-0.081 5.775,-0.121 8.296,-0.121 0,-3.254 -1.179,-5.816 -3.538,-7.687 -2.277,-1.952 -5.002,-2.928 -8.174,-2.928 -3.009,0 -5.774,0.651 -8.296,1.952 -2.44,1.221 -4.636,2.929 -6.588,5.124 l -9.76,-10.004 c 3.416,-3.1715 7.402,-5.5302 11.956,-7.0755 4.555,-1.6267 9.272,-2.44 14.152,-2.44 5.368,0 9.76,0.6913 13.176,2.074 3.498,1.3013 6.263,3.2533 8.296,5.8555 2.115,2.603 3.579,5.816 4.392,9.638 0.814,3.742 1.22,8.093 1.22,13.054 v 20.135 c 0,5.522 -4.477,10 -10,10 h -6.836 z m -4.514,-18.545 c -1.382,0 -3.131,0.082 -5.246,0.244 -2.033,0.082 -4.026,0.407 -5.978,0.976 -1.87,0.57 -3.497,1.424 -4.88,2.562 -1.301,1.139 -1.952,2.725 -1.952,4.759 0,2.196 0.936,3.822 2.806,4.879 1.871,1.058 3.823,1.586 5.856,1.586 1.79,0 3.498,-0.244 5.124,-0.732 1.708,-0.488 3.213,-1.179 4.514,-2.074 1.302,-0.894 2.318,-2.033 3.05,-3.416 0.814,-1.382 1.22,-3.009 1.22,-4.879 v -3.905 z"
     fill="#dc244c"
     id="path14" />
  <path
     d="m 340.181,76.708 c 0,-5.5223 4.477,-9.9995 10,-9.9995 h 7.568 V 74.76 h 0.244 c 0.569,-1.138 1.382,-2.2768 2.44,-3.4155 1.057,-1.1387 2.318,-2.1553 3.782,-3.05 1.464,-0.8947 3.131,-1.6267 5.002,-2.196 1.87,-0.5693 3.904,-0.854 6.1,-0.854 4.636,0 8.377,0.732 11.224,2.196 2.846,1.3827 5.042,3.3347 6.588,5.8555 1.626,2.522 2.724,5.49 3.294,8.906 0.569,3.416 0.854,7.117 0.854,11.103 V 116 c 0,5.523 -4.477,10.001 -10,10.001 h -8.3 V 96.964 c 0,-1.708 -0.082,-3.456 -0.244,-5.246 -0.082,-1.87 -0.448,-3.578 -1.098,-5.123 -0.57,-1.546 -1.505,-2.807 -2.806,-3.783 -1.22,-0.976 -3.01,-1.464 -5.368,-1.464 -2.359,0 -4.27,0.448 -5.734,1.342 -1.464,0.814 -2.603,1.952 -3.416,3.416 -0.732,1.383 -1.22,2.969 -1.464,4.758 -0.244,1.79 -0.366,3.66 -0.366,5.612 V 116 c 0,5.523 -4.477,10.001 -10,10.001 h -8.3 z"
     fill="#dc244c"
     id="path16" />
  <path
     d="m 451.837,71.3485 c 0,5.5225 -4.477,9.9995 -10,9.9995 h -6.104 v 19.765 c 0,1.626 0.082,3.131 0.244,4.513 0.163,1.302 0.529,2.44 1.098,3.416 0.57,0.976 1.424,1.749 2.562,2.319 1.22,0.488 2.806,0.731 4.758,0.731 0.976,0 2.237,-0.081 3.782,-0.244 1.627,-0.244 2.847,-0.731 3.66,-1.463 v 8.724 c 0,3.915 -2.452,7.557 -6.344,7.989 v 0 c -2.196,0.244 -4.351,0.366 -6.466,0.366 -3.09,0 -5.937,-0.325 -8.54,-0.976 -2.602,-0.65 -4.88,-1.667 -6.832,-3.049 -1.952,-1.464 -3.497,-3.335 -4.636,-5.613 -1.057,-2.277 -1.586,-5.042 -1.586,-8.295 V 81.348 h -11.712 v -4.64 c 0,-5.5224 4.478,-9.9995 10,-9.9995 h 1.712 v -7.568 c 0,-5.5229 4.478,-10 10,-10 h 8.3 v 17.568 h 16.104 z"
     fill="#dc244c"
     id="path18" />
  <path
     fill-rule="evenodd"
     clip-rule="evenodd"
     d="M 103.78945,140.08542 100.75056,56.301819 95.24693,34.21243 131.982,38.1013 V 139.451 l -22.44,12.951 z"
     fill="#24386c"
     id="path22"
     sodipodi:nodetypes="ccccccc" />
  <path
     fill-rule="evenodd"
     clip-rule="evenodd"
     d="M 131.982,38.1002 109.542,51.0603 63.23407,40.902375 9.0313,62.970929 7e-4,38.1002 32.991,19.0501 65.991,0 98.982,19.0501 Z"
     fill="#7589be"
     id="path24"
     sodipodi:nodetypes="ccccccccc" />
  <path
     fill-rule="evenodd"
     clip-rule="evenodd"
     d="M 0,38.1002 22.44,51.0603 35.44816,89.74586 79.36944,124.88774 65.991,152.4 32.991,133.349 0,114.299 V 38.0988"
     fill="#b2bfe8"
     id="path26"
     sodipodi:nodetypes="cccccccc" />
  <path
     fill-rule="evenodd"
     clip-rule="evenodd"
     d="M 80.86787,104.5593 65.991,126.491 v 25.91 l 21.11,-12.18 10.87692,-16.24238"
     fill="#24386c"
     id="path28"
     sodipodi:nodetypes="ccccc" />
  <path
     fill-rule="evenodd"
     clip-rule="evenodd"
     d="M 66,100.586 44.881,64.0208 49.42989,51.901689 66.72328,43.517274 76.31155,53.164738 87.101,64.0208 Z"
     fill="#7589be"
     id="path30"
     sodipodi:nodetypes="ccccccc" />
  <path
     fill-rule="evenodd"
     clip-rule="evenodd"
     d="m 44.881,64.0225 21.11,12.1795 v 24.38 L 46.46695,101.42201 34.65713,86.34212 44.881,64.0225"
     fill="#b2bfe8"
     id="path32"
     sodipodi:nodetypes="cccccc" />
  <path
     fill-rule="evenodd"
     clip-rule="evenodd"
     d="M 65.991,76.2 87.101,64.0207 101.46763,87.94237 84.08151,102.30721 65.991,100.58 Z"
     fill="#24386c"
     id="path34"
     sodipodi:nodetypes="cccccc" />
  <path
     fill-rule="evenodd"
     clip-rule="evenodd"
     d="m 87.101,140.219 22.44,12.181 V 51.0603 L 87.761,38.4901 65.991,25.9205 44.211,38.4901 22.441,51.0603 v 50.2887 l 21.77,12.57 21.78,12.571 21.11,-12.191 z m 0,-51.83 -21.11,12.19 -21.11,-12.19 v -24.37 l 21.11,-12.1903 21.11,12.1903 v 24.37"
     fill="#dc244c"
     id="path36" />
  <path
     d="M 66,126.5 V 100.586 L 45,88.5 v 25.871 z"
     fill="url(#paint0_linear_425_56)"
     id="path38"
     style="fill:url(#paint0_linear_425_56)" />
  <defs
     id="defs45">
    <linearGradient
       id="paint0_linear_425_56"
       x1="62.12793"
       y1="105.54445"
       x2="41.2024"
       y2="105.54445"
       gradientUnits="userSpaceOnUse">
      <stop
         stop-color="#FF3364"
         id="stop40" />
      <stop
         offset="1"
         stop-color="#C91540"
         stop-opacity="0"
         id="stop42" />
    </linearGradient>
  </defs>
</svg>
