<?xml version="1.0" encoding="UTF-8"?>
<svg width="541.47mm" height="162.4mm" version="1.1" viewBox="0 0 541.47 162.4" xmlns="http://www.w3.org/2000/svg" xmlns:cc="http://creativecommons.org/ns#" xmlns:dc="http://purl.org/dc/elements/1.1/" xmlns:rdf="http://www.w3.org/1999/02/22-rdf-syntax-ns#">
 <metadata>
  <rdf:RDF>
   <cc:Work rdf:about="">
    <dc:format>image/svg+xml</dc:format>
    <dc:type rdf:resource="http://purl.org/dc/dcmitype/StillImage"/>
    <dc:title/>
   </cc:Work>
  </rdf:RDF>
 </metadata>
 <g transform="translate(-25.341 -22.638)">
  <g transform="matrix(.35278 0 0 -.35278 -44.78 244.95)">
   <g fill-rule="evenodd">
    <path d="m400 616-93.542-54-93.517-54v-216l93.517-54 93.542-54 59.84 34.528 63.609-34.528 63.609 36.709v287.29l-93.542 54z" fill="#201d1d"/>
    <path d="m523.45 328.71v142.55l63.61 36.737v-287.29l-63.61-36.709v144.71" fill="#201d1d"/>
    <path d="m587.06 508-63.61-36.737-61.738 35.632-61.711 35.63-61.738-35.63-61.711-35.632-63.61 36.737 93.516 54 93.543 54 93.516-54 93.543-54" fill="#65676d"/>
    <path d="m212.94 508 63.61-36.737v-142.55l61.711-35.632 61.738-35.632v-73.445l-93.543 54-93.516 54v216" fill="#a4a7a8"/>
    <path d="M 459.84,292 400,257.445 V 184 l 59.84,34.527 V 292" fill="#201d1d"/>
    <path d="M 400,400 340.16,434.525 400,469.08 459.84,434.525 400,400" fill="#65676d"/>
    <path d="m340.16 434.52 59.84-34.525v-69.108l-59.84 34.553v69.08" fill="#a4a7a8"/>
    <path d="m400 400 59.84 34.525v-69.08l-59.84-34.553v69.108" fill="#201d1d"/>
    <path d="m459.84 218.53 63.609-34.527v287.26l-61.738 35.632-61.711 35.63-61.738-35.63-61.711-35.632v-142.55l61.711-35.632 61.738-35.632 59.84 34.555zm0 146.92-59.84-34.553-59.84 34.553v69.08l59.84 34.555 59.84-34.555v-69.08" fill="#bc1439"/>
   </g>
   <g transform="scale(1,-1)" fill="#bc1439" stroke-width=".75" aria-label="drant">
    <path d="m783.96-427.3v-105.47h63.281v273.52h-63.281v-28.477q-13.008 17.402-28.652 25.488-15.645 8.0859-36.211 8.0859-36.387 0-59.766-28.828-23.379-29.004-23.379-74.531 0-45.527 23.379-74.355 23.379-29.004 59.766-29.004 20.391 0 36.035 8.2617 15.82 8.0859 28.828 25.312zm-41.484 127.44q20.215 0 30.762-14.766 10.723-14.766 10.723-42.891t-10.723-42.891q-10.547-14.766-30.762-14.766-20.039 0-30.762 14.766-10.547 14.766-10.547 42.891t10.547 42.891q10.723 14.766 30.762 14.766z"/>
    <path d="m1054-402.52q-8.2617-3.8672-16.523-5.625-8.086-1.9336-16.348-1.9336-24.258 0-37.441 15.645-13.008 15.469-13.008 44.473v90.703h-62.93v-196.88h62.93v32.344q12.129-19.336 27.773-28.125 15.82-8.9648 37.793-8.9648 3.164 0 6.8555 0.35157 3.6914 0.17578 10.723 1.0547z"/>
    <path d="m1173.5-347.85q-19.688 0-29.707 6.6797-9.8437 6.6797-9.8437 19.688 0 11.953 7.9101 18.809 8.086 6.6797 22.324 6.6797 17.754 0 29.883-12.656 12.129-12.832 12.129-31.992v-7.207zm96.152-23.73v112.32h-63.457v-29.18q-12.656 17.93-28.477 26.191-15.82 8.0859-38.496 8.0859-30.586 0-49.746-17.754-18.984-17.93-18.984-46.406 0-34.629 23.73-50.801 23.906-16.172 74.883-16.172h37.09v-4.9219q0-14.941-11.777-21.797-11.777-7.0312-36.738-7.0312-20.215 0-37.617 4.043-17.402 4.043-32.344 12.129v-47.988q20.215-4.9219 40.606-7.3828 20.391-2.6367 40.781-2.6367 53.262 0 76.816 21.094 23.73 20.918 23.73 68.203z"/>
    <path d="m1526.1-379.14v119.88h-63.281v-91.758q0-25.488-1.2305-35.156-1.0547-9.668-3.8672-14.238-3.6914-6.1523-10.02-9.4922-6.3281-3.5156-14.414-3.5156-19.688 0-30.938 15.293-11.25 15.117-11.25 42.012v96.855h-62.93v-196.88h62.93v28.828q14.238-17.227 30.234-25.312 15.996-8.2617 35.332-8.2617 34.102 0 51.68 20.918 17.754 20.918 17.754 60.82z"/>
    <path d="m1653.2-512.03v55.898h64.863v45h-64.863v83.496q0 13.711 5.4492 18.633 5.4492 4.7461 21.621 4.7461h32.344v45h-53.965q-37.266 0-52.91-15.469-15.469-15.645-15.469-52.91v-83.496h-31.289v-45h31.289v-55.898z"/>
   </g>
  </g>
 </g>
</svg>
